<?xml version="1.0" ?><!DOCTYPE svg  PUBLIC '-//W3C//DTD SVG 1.1//EN'  'http://www.w3.org/Graphics/SVG/1.1/DTD/svg11.dtd'><svg height="100%" style="fill-rule:evenodd;clip-rule:evenodd;stroke-linejoin:round;stroke-miterlimit:2;" version="1.1" viewBox="0 0 32 32" width="100%" xml:space="preserve" xmlns="http://www.w3.org/2000/svg" xmlns:serif="http://www.serif.com/" xmlns:xlink="http://www.w3.org/1999/xlink"><path d="M6,6l-1.012,-0c-0.796,-0 -1.559,0.316 -2.122,0.879c-0.562,0.562 -0.878,1.325 -0.878,2.121c-0,3.463 -0,10.537 -0,14c-0,0.796 0.316,1.559 0.878,2.121c0.563,0.563 1.326,0.879 2.122,0.879l22.012,-0c0.796,-0 1.559,-0.316 2.121,-0.879c0.563,-0.562 0.879,-1.325 0.879,-2.121c-0,-3.463 -0,-10.537 -0,-14c0,-0.796 -0.316,-1.559 -0.879,-2.121c-0.562,-0.563 -1.325,-0.879 -2.121,-0.879l-1,-0l-0,-0.976c-0,-1.657 -1.343,-3 -3,-3c-3.463,-0 -10.537,-0 -14,-0c-1.657,-0 -3,1.343 -3,3l0,0.976Zm-0.453,18l20.894,-0l-10.447,-9.636l-10.447,9.636Zm-1.559,-1.283l7.282,-6.717l-7.282,-6.717l-0,13.434Zm16.73,-6.717l7.282,6.717l-0,-13.434l-7.282,6.717Zm3.282,-5.748l-0,-5.228c-0,-0.552 -0.448,-1 -1,-1l-14,-0c-0.552,-0 -1,0.448 -1,1l0,5.239l4.745,4.377l2.571,-2.372c0.383,-0.353 0.973,-0.353 1.356,0l2.571,2.372l4.757,-4.388Zm-18,-1.834l0,-0.418l-0.453,-0l0.453,0.418Zm20,-0.418l-0,0.407l0.441,-0.407l-0.441,-0Z"/><path d="M10.979,9l10,0c0.551,0 1,-0.448 1,-1c-0,-0.552 -0.449,-1 -1,-1l-10,0c-0.552,0 -1,0.448 -1,1c-0,0.552 0.448,1 1,1Z"/></svg>