<?xml version="1.0" ?><!DOCTYPE svg  PUBLIC '-//W3C//DTD SVG 1.1//EN'  'http://www.w3.org/Graphics/SVG/1.1/DTD/svg11.dtd'><svg height="100%" style="fill-rule:evenodd;clip-rule:evenodd;stroke-linejoin:round;stroke-miterlimit:2;" version="1.1" viewBox="0 0 32 32" width="100%" xml:space="preserve" xmlns="http://www.w3.org/2000/svg" xmlns:serif="http://www.serif.com/" xmlns:xlink="http://www.w3.org/1999/xlink"><path d="M24.594,15.271c1.306,-2.914 1.047,-6.291 -0.689,-8.972c-1.735,-2.681 -4.711,-4.299 -7.905,-4.299c-0.001,-0 -0.001,-0 -0.002,-0c-3.194,0 -6.17,1.619 -7.906,4.299c-1.736,2.681 -1.994,6.059 -0.688,8.973c2.084,4.646 4.335,9.665 5.858,13.062c0.484,1.078 1.556,1.772 2.738,1.772c1.182,-0 2.254,-0.694 2.737,-1.773c1.523,-3.397 3.774,-8.416 5.857,-13.062Zm-1.825,-0.818c-2.083,4.646 -4.334,9.665 -5.857,13.062c-0.161,0.36 -0.518,0.591 -0.912,0.591c-0.394,-0 -0.751,-0.231 -0.913,-0.591c0,0 -5.858,-13.061 -5.858,-13.061c-1.029,-2.296 -0.825,-4.956 0.542,-7.068c1.367,-2.111 3.711,-3.386 6.227,-3.386l0.002,-0c2.516,-0 4.86,1.275 6.227,3.386c1.367,2.111 1.571,4.772 0.542,7.067Z"/><path d="M15.996,6.005c-2.761,0 -5.002,2.239 -5.002,4.997c0,2.757 2.241,4.996 5.002,4.996c2.761,0 5.002,-2.239 5.002,-4.996c0,-2.758 -2.241,-4.997 -5.002,-4.997Zm0,2c1.657,0 3.002,1.343 3.002,2.997c0,1.654 -1.345,2.996 -3.002,2.996c-1.656,0 -3.002,-1.342 -3.002,-2.996c0,-1.654 1.346,-2.997 3.002,-2.997Z"/></svg>