<?xml version="1.0" ?><!DOCTYPE svg  PUBLIC '-//W3C//DTD SVG 1.1//EN'  'http://www.w3.org/Graphics/SVG/1.1/DTD/svg11.dtd'><svg height="100%" style="fill-rule:evenodd;clip-rule:evenodd;stroke-linejoin:round;stroke-miterlimit:2;" version="1.1" viewBox="0 0 32 32" width="100%" xml:space="preserve" xmlns="http://www.w3.org/2000/svg" xmlns:serif="http://www.serif.com/" xmlns:xlink="http://www.w3.org/1999/xlink"><path d="M20.216,9.281l-8.554,5.109c-0.621,-1.404 -2.027,-2.384 -3.66,-2.384c-2.208,-0 -4,1.792 -4,4c-0,2.207 1.792,4 4,4c1.659,-0 3.083,-1.013 3.689,-2.453l8.533,5.097c-0.146,0.415 -0.226,0.862 -0.226,1.328c0,2.207 1.793,4 4,4c2.208,-0 4,-1.793 4,-4c0,-2.208 -1.792,-4 -4,-4c-1.019,-0 -1.949,0.382 -2.656,1.01l-8.413,-5.025l8.393,-5.013c0.709,0.639 1.648,1.028 2.676,1.028c2.208,-0 4,-1.793 4,-4c0,-2.208 -1.792,-4 -4,-4c-2.207,-0 -4,1.792 -4,4c0,0.456 0.077,0.895 0.218,1.303Zm3.782,12.697c1.104,-0 2,0.896 2,2c0,1.104 -0.896,2 -2,2c-1.104,-0 -2,-0.896 -2,-2c0,-1.104 0.896,-2 2,-2Zm-15.996,-7.972c1.104,-0 2,0.896 2,2c-0,1.104 -0.896,2 -2,2c-1.104,-0 -2,-0.896 -2,-2c-0,-1.104 0.896,-2 2,-2Zm15.996,-8.028c1.104,-0 2,0.896 2,2c0,1.104 -0.896,2 -2,2c-1.104,-0 -2,-0.896 -2,-2c0,-1.104 0.896,-2 2,-2Z"/></svg>